<svg id="Layer_1" data-name="Layer 1" xmlns="http://www.w3.org/2000/svg" xmlns:xlink="http://www.w3.org/1999/xlink" viewBox="0 0 1920.18 1075.64"><defs><style>.cls-1,.cls-5{fill:none;}.cls-2,.cls-5{isolation:isolate;}.cls-2{opacity:0.11;fill:url(#linear-gradient);}.cls-3{fill:url(#linear-gradient-2);}.cls-4{clip-path:url(#clip-path);}.cls-5{stroke:#361cc1;stroke-width:128px;opacity:0.14;}</style><linearGradient id="linear-gradient" x1="420.28" y1="1079" x2="420.28" y2="1078.41" gradientTransform="matrix(1920.18, 0, 0, -1075.64, -806057.01, 1160610.23)" gradientUnits="userSpaceOnUse"><stop offset="0" stop-color="#361cc1"/><stop offset="1" stop-color="#2e82ef"/></linearGradient><linearGradient id="linear-gradient-2" x1="420.28" y1="1079" x2="420.28" y2="1078.41" gradientTransform="matrix(1920.11, 0, 0, -1075.62, -806024.39, 1160594.3)" gradientUnits="userSpaceOnUse"><stop offset="0.06" stop-color="#00a651"/><stop offset="1" stop-color="#2e82ef"/></linearGradient><clipPath id="clip-path"><path class="cls-1" d="M.06,367.56S95.33,571.75,401.27,528.71,820.92,416.6,945.46,545.6s344-12.46,572.9-52.94,360.19,68.16,401.79,143c.56-32.39,0,47.6-.07-635.62H.08Z"/></clipPath></defs><path id="Path_195" data-name="Path 195" class="cls-2" d="M0,367.41S100.43,607.35,401.21,558.88s442.06-190.42,537.63-85.06,352.09,94.33,581,52.38S1883,568,1920.18,635.64c.06.06-.41-715.66-.37-635.61L0,0Z"/><path id="Path_194" data-name="Path 194" class="cls-3" d="M0,367.56S95.31,571.75,401.25,528.71,820.9,416.6,945.44,545.6s344-12.46,572.91-52.94,360.19,68.16,401.79,143c.55-32.39,0,47.6-.08-635.62H.06Z"/><g class="cls-4"><g id="Mask_Group_6" data-name="Mask Group 6"><path id="Path_4" data-name="Path 4" class="cls-5" d="M25.72,447.74s174.24-202,817.43-65,869.42,127.47,1056.16-414"/></g></g></svg>