<svg id="Layer_1" data-name="Layer 1" xmlns="http://www.w3.org/2000/svg" xmlns:xlink="http://www.w3.org/1999/xlink" viewBox="0 0 1920.18 1075.64"><defs><style>.cls-1,.cls-5{fill:none;}.cls-2,.cls-5{isolation:isolate;}.cls-2{opacity:0.11;fill:url(#linear-gradient);}.cls-3{fill:url(#linear-gradient-2);}.cls-4{clip-path:url(#clip-path);}.cls-5{stroke:#361cc1;stroke-width:128px;opacity:0.14;}</style><linearGradient id="linear-gradient" x1="420.28" y1="1079" x2="420.28" y2="1078" gradientTransform="matrix(1920.18, 0, 0, -1075.64, -806057.01, 1160610.23)" gradientUnits="userSpaceOnUse"><stop offset="0" stop-color="#361cc1"/><stop offset="1" stop-color="#2e82ef"/></linearGradient><linearGradient id="linear-gradient-2" x1="420.28" y1="1079" x2="420.28" y2="1078" gradientTransform="matrix(1920.11, 0, 0, -1075.62, -806024.39, 1160594.3)" gradientUnits="userSpaceOnUse"><stop offset="0.06" stop-color="#00a651"/><stop offset="1" stop-color="#2e82ef"/></linearGradient><clipPath id="clip-path"><path class="cls-1" d="M.06,607.56S95.33,811.75,401.27,768.71,820.92,736.6,945.46,865.6s344,107.54,572.9,67.06,360.19,68.16,401.79,143c0-2.4-.07-1075.62-.07-1075.62H.08Z"/></clipPath></defs><path id="Path_195" data-name="Path 195" class="cls-2" d="M0,607.41S100.43,847.35,401.21,798.88s442.06,9.58,537.63,114.94,352.09,94.33,581,52.38S1883,1008,1920.18,1075.64c0,0-.37-1075.61-.37-1075.61L0,0Z"/><path id="Path_194" data-name="Path 194" class="cls-3" d="M.06,607.56S95.33,811.75,401.27,768.71,820.92,736.6,945.46,865.6s344,107.54,572.9,67.06,360.19,68.16,401.79,143c0-2.4-.07-1075.62-.07-1075.62H.08Z"/><g class="cls-4"><g id="Mask_Group_6" data-name="Mask Group 6"><path id="Path_4" data-name="Path 4" class="cls-5" d="M25.72,687.74s174.24-392,817.43-255,869.42,77.47,1056.16-464"/></g></g></svg>